<svg fill="#7950F2" xmlns="http://www.w3.org/2000/svg"  viewBox="0 0 32 32" width="32px" height="32px"><path d="M 3 2 C 2.4477539 2 2 2.4477539 2 3 L 2 6 L 9 6 L 11 2 L 3 2 z M 12 2 L 10 6 L 11 6 L 13 2 L 12 2 z M 14 2 L 12 6 L 30 6 L 30 3 C 30 2.4477539 29.552246 2 29 2 L 14 2 z M 4 3 C 4.5523071 3 5 3.4476929 5 4 C 5 4.5523071 4.5523071 5 4 5 C 3.4477539 5 3 4.5523071 3 4 C 3 3.4476929 3.4477539 3 4 3 z M 7 3 C 7.5523071 3 8 3.4476929 8 4 C 8 4.5523071 7.5523071 5 7 5 C 6.4477539 5 6 4.5523071 6 4 C 6 3.4476929 6.4477539 3 7 3 z M 2 7 L 2 29 C 2 29.552246 2.4477539 30 3 30 L 29 30 C 29.552246 30 30 29.552246 30 29 L 30 7 L 2 7 z M 8 9 L 8.7578125 9 C 11.438477 9 13.975586 9.9321289 16 11.642578 C 18.024414 9.9321289 20.561523 9 23.242188 9 L 24 9 L 24 22 L 22.708984 22 C 20.241699 22 17.824707 23.009766 16 24.785156 C 14.175293 23.009766 11.758301 22 9.2910156 22 L 8 22 L 8 9 z M 7 10 L 7 22.5 C 7 22.776367 7.2236328 23 7.5 23 L 9.2910156 23 C 11.684082 23 13.936523 24.008301 15.632812 25.839844 C 15.727539 25.941894 15.86084 26 16 26 C 16.13916 26 16.272461 25.941895 16.367188 25.839844 C 18.063477 24.008301 20.315918 23 22.708984 23 L 24.5 23 C 24.776367 23 25 22.776367 25 22.5 L 25 10 C 25.552246 10 26 10.447754 26 11 L 26 23 C 26 23.552246 25.552246 24 25 24 L 23.242188 24 C 20.773438 24 18.452637 24.961426 16.707031 26.707031 C 16.511719 26.902344 16.255859 27 16 27 C 15.744141 27 15.488281 26.902344 15.292969 26.707031 C 13.547363 24.961426 11.226562 24 8.7578125 24 L 7 24 C 6.4477539 24 6 23.552246 6 23 L 6 11 C 6 10.447754 6.4477539 10 7 10 z M 12.544922 14.001953 C 12.41748 13.990356 12.286133 14.026855 12.179688 14.115234 L 9.1796875 16.615234 C 9.065918 16.710449 9 16.851562 9 17 C 9 17.148438 9.065918 17.289551 9.1796875 17.384766 L 12.179688 19.884766 C 12.273438 19.962402 12.387207 20 12.5 20 C 12.643555 20 12.785645 19.938965 12.884766 19.820312 C 13.061524 19.60791 13.032227 19.291992 12.820312 19.115234 L 10.28125 17 L 12.820312 14.884766 C 13.032227 14.708008 13.061523 14.39209 12.884766 14.179688 C 12.796387 14.07373 12.672363 14.01355 12.544922 14.001953 z M 19.455078 14.001953 C 19.327637 14.01355 19.203613 14.07373 19.115234 14.179688 C 18.938477 14.39209 18.967773 14.708008 19.179688 14.884766 L 21.71875 17 L 19.179688 19.115234 C 18.967773 19.291992 18.938476 19.60791 19.115234 19.820312 C 19.214355 19.938965 19.356445 20 19.5 20 C 19.612793 20 19.726562 19.962402 19.820312 19.884766 L 22.820312 17.384766 C 22.934082 17.289551 23 17.148438 23 17 C 23 16.851562 22.934082 16.710449 22.820312 16.615234 L 19.820312 14.115234 C 19.713867 14.026855 19.58252 13.990356 19.455078 14.001953 z M 17.572266 14.003906 C 17.380188 13.976715 17.179199 14.064209 17.072266 14.242188 L 14.072266 19.242188 C 13.930176 19.479004 14.005371 19.785645 14.242188 19.927734 C 14.322754 19.976074 14.412598 20 14.5 20 C 14.669922 20 14.835938 19.912109 14.929688 19.755859 L 17.929688 14.755859 C 18.072266 14.519043 17.995117 14.212402 17.757812 14.070312 C 17.699707 14.035156 17.636292 14.01297 17.572266 14.003906 z"/></svg>