<svg fill="#7950F2" xmlns="http://www.w3.org/2000/svg"  viewBox="0 0 32 32" width="32px" height="32px"><path d="M 3 2 C 2.4477539 2 2 2.4472656 2 3 L 2 29 C 2 29.552734 2.4477539 30 3 30 L 29 30 C 29.552734 30 30 29.552734 30 29 L 30 3 C 30 2.4472656 29.552734 2 29 2 L 3 2 z M 4 4 L 12.380859 4 L 10.380859 8 L 4 8 L 4 4 z M 14.619141 4 L 16.382812 4 L 14.382812 8 L 12.619141 8 L 14.619141 4 z M 18.619141 4 L 28 4 L 28 8 L 16.619141 8 L 18.619141 4 z M 6 5 A 1 1 0 0 0 6 7 A 1 1 0 0 0 6 5 z M 9 5 A 1 1 0 0 0 9 7 A 1 1 0 0 0 9 5 z M 4 10 L 28 10 L 28 28 L 4 28 L 4 10 z M 8 11 C 7.4477539 11 7 11.447266 7 12 L 7 24 C 7 24.552734 7.4477539 25 8 25 L 11.171875 25 C 12.728516 25 14.191895 25.606445 15.292969 26.707031 C 15.488281 26.902344 15.744141 27 16 27 C 16.255859 27 16.511719 26.902344 16.707031 26.707031 C 17.791992 25.62207 19.293945 25 20.828125 25 L 24 25 C 24.552734 25 25 24.552734 25 24 L 25 12 C 25 11.447266 24.552734 11 24 11 L 20.828125 11 C 19.083984 11 17.370117 11.598633 16.001953 12.666016 C 14.628906 11.585938 12.945312 11 11.171875 11 L 8 11 z M 9 13 L 11.171875 13 C 12.728516 13 14.191895 13.606445 15.292969 14.707031 C 15.683594 15.097656 16.316406 15.097656 16.707031 14.707031 C 17.791992 13.62207 19.293945 13 20.828125 13 L 23 13 L 23 23 L 20.828125 23 C 19.083984 23 17.370117 23.598633 16.001953 24.666016 C 14.628906 23.585938 12.945312 23 11.171875 23 L 9 23 L 9 13 z M 14 16 C 13.744141 16 13.488281 16.097656 13.292969 16.292969 L 11.292969 18.292969 C 10.902344 18.683594 10.902344 19.316406 11.292969 19.707031 L 13.292969 21.707031 C 13.488281 21.902344 13.744141 22 14 22 C 14.255859 22 14.511719 21.902344 14.707031 21.707031 C 15.097656 21.316406 15.097656 20.683594 14.707031 20.292969 L 13.414062 19 L 14.707031 17.707031 C 15.097656 17.316406 15.097656 16.683594 14.707031 16.292969 C 14.511719 16.097656 14.255859 16 14 16 z M 18 16 C 17.744141 16 17.488281 16.097656 17.292969 16.292969 C 16.902344 16.683594 16.902344 17.316406 17.292969 17.707031 L 18.585938 19 L 17.292969 20.292969 C 16.902344 20.683594 16.902344 21.316406 17.292969 21.707031 C 17.488281 21.902344 17.744141 22 18 22 C 18.255859 22 18.511719 21.902344 18.707031 21.707031 L 20.707031 19.707031 C 21.097656 19.316406 21.097656 18.683594 20.707031 18.292969 L 18.707031 16.292969 C 18.511719 16.097656 18.255859 16 18 16 z"/></svg>